M48
; DRILL file {KiCad 9.0.1} date 2025-05-02T16:58:04-0400
; FORMAT={-:-/ absolute / metric / decimal}
; #@! TF.CreationDate,2025-05-02T16:58:04-04:00
; #@! TF.GenerationSoftware,Kicad,Pcbnew,9.0.1
; #@! TF.FileFunction,Plated,1,2,PTH
FMAT,2
METRIC
; #@! TA.AperFunction,Plated,PTH,ComponentDrill
T1C0.500
; #@! TA.AperFunction,Plated,PTH,ComponentDrill
T2C1.000
%
G90
G05
T1
X101.5Y-127.0
X103.5Y-127.0
X105.5Y-127.0
X108.5Y-127.0
X110.0Y-127.0
X111.5Y-127.0
X113.0Y-127.0
X114.5Y-127.0
X119.5Y-127.0
X122.5Y-127.0
X126.0Y-127.0
X162.0Y-74.0
X168.0Y-74.0
T2
X135.92Y-68.24
X135.92Y-70.78
X135.92Y-73.32
X135.92Y-75.86
X135.92Y-78.4
X135.92Y-80.94
X135.92Y-83.48
X135.92Y-86.02
X135.92Y-88.56
X135.92Y-91.1
X135.92Y-93.64
X135.92Y-96.18
X135.92Y-98.72
X135.92Y-101.26
X135.92Y-103.8
X135.92Y-106.34
X135.92Y-108.88
X135.92Y-111.42
X135.92Y-113.96
X135.92Y-116.5
X153.7Y-68.24
X153.7Y-70.78
X153.7Y-73.32
X153.7Y-75.86
X153.7Y-78.4
X153.7Y-80.94
X153.7Y-83.48
X153.7Y-86.02
X153.7Y-88.56
X153.7Y-91.1
X153.7Y-93.64
X153.7Y-96.18
X153.7Y-98.72
X153.7Y-101.26
X153.7Y-103.8
X153.7Y-106.34
X153.7Y-108.88
X153.7Y-111.42
X153.7Y-113.96
X153.7Y-116.5
M30
