%TF.GenerationSoftware,KiCad,Pcbnew,9.0.1*%
%TF.CreationDate,2025-05-02T16:57:55-04:00*%
%TF.ProjectId,de_fused_pico,64655f66-7573-4656-945f-7069636f2e6b,rev?*%
%TF.SameCoordinates,Original*%
%TF.FileFunction,Soldermask,Bot*%
%TF.FilePolarity,Negative*%
%FSLAX46Y46*%
G04 Gerber Fmt 4.6, Leading zero omitted, Abs format (unit mm)*
G04 Created by KiCad (PCBNEW 9.0.1) date 2025-05-02 16:57:55*
%MOMM*%
%LPD*%
G01*
G04 APERTURE LIST*
G04 Aperture macros list*
%AMRoundRect*
0 Rectangle with rounded corners*
0 $1 Rounding radius*
0 $2 $3 $4 $5 $6 $7 $8 $9 X,Y pos of 4 corners*
0 Add a 4 corners polygon primitive as box body*
4,1,4,$2,$3,$4,$5,$6,$7,$8,$9,$2,$3,0*
0 Add four circle primitives for the rounded corners*
1,1,$1+$1,$2,$3*
1,1,$1+$1,$4,$5*
1,1,$1+$1,$6,$7*
1,1,$1+$1,$8,$9*
0 Add four rect primitives between the rounded corners*
20,1,$1+$1,$2,$3,$4,$5,0*
20,1,$1+$1,$4,$5,$6,$7,0*
20,1,$1+$1,$6,$7,$8,$9,0*
20,1,$1+$1,$8,$9,$2,$3,0*%
%AMFreePoly0*
4,1,37,0.603843,0.796157,0.639018,0.796157,0.711114,0.766294,0.766294,0.711114,0.796157,0.639018,0.796157,0.603843,0.800000,0.600000,0.800000,-0.600000,0.796157,-0.603843,0.796157,-0.639018,0.766294,-0.711114,0.711114,-0.766294,0.639018,-0.796157,0.603843,-0.796157,0.600000,-0.800000,0.000000,-0.800000,0.000000,-0.796148,-0.078414,-0.796148,-0.232228,-0.765552,-0.377117,-0.705537,
-0.507515,-0.618408,-0.618408,-0.507515,-0.705537,-0.377117,-0.765552,-0.232228,-0.796148,-0.078414,-0.796148,0.078414,-0.765552,0.232228,-0.705537,0.377117,-0.618408,0.507515,-0.507515,0.618408,-0.377117,0.705537,-0.232228,0.765552,-0.078414,0.796148,0.000000,0.796148,0.000000,0.800000,0.600000,0.800000,0.603843,0.796157,0.603843,0.796157,$1*%
%AMFreePoly1*
4,1,37,0.000000,0.796148,0.078414,0.796148,0.232228,0.765552,0.377117,0.705537,0.507515,0.618408,0.618408,0.507515,0.705537,0.377117,0.765552,0.232228,0.796148,0.078414,0.796148,-0.078414,0.765552,-0.232228,0.705537,-0.377117,0.618408,-0.507515,0.507515,-0.618408,0.377117,-0.705537,0.232228,-0.765552,0.078414,-0.796148,0.000000,-0.796148,0.000000,-0.800000,-0.600000,-0.800000,
-0.603843,-0.796157,-0.639018,-0.796157,-0.711114,-0.766294,-0.766294,-0.711114,-0.796157,-0.639018,-0.796157,-0.603843,-0.800000,-0.600000,-0.800000,0.600000,-0.796157,0.603843,-0.796157,0.639018,-0.766294,0.711114,-0.711114,0.766294,-0.639018,0.796157,-0.603843,0.796157,-0.600000,0.800000,0.000000,0.800000,0.000000,0.796148,0.000000,0.796148,$1*%
G04 Aperture macros list end*
%ADD10C,1.000000*%
%ADD11C,2.200000*%
%ADD12C,1.850000*%
%ADD13RoundRect,0.200000X-0.600000X-0.600000X0.600000X-0.600000X0.600000X0.600000X-0.600000X0.600000X0*%
%ADD14C,1.600000*%
%ADD15FreePoly0,0.000000*%
%ADD16FreePoly1,0.000000*%
G04 APERTURE END LIST*
D10*
%TO.C,REF\u002A\u002A*%
X110000000Y-127000000D03*
%TD*%
%TO.C,REF\u002A\u002A*%
X101500000Y-127000000D03*
%TD*%
%TO.C,REF\u002A\u002A*%
X126000000Y-127000000D03*
%TD*%
%TO.C,REF\u002A\u002A*%
X114500000Y-127000000D03*
%TD*%
%TO.C,REF\u002A\u002A*%
X122500000Y-127000000D03*
%TD*%
%TO.C,REF\u002A\u002A*%
X105500000Y-127000000D03*
%TD*%
D11*
%TO.C,A1*%
X142085000Y-68370000D03*
D12*
X142385000Y-71400000D03*
X147235000Y-71400000D03*
D11*
X147535000Y-68370000D03*
D13*
X135920000Y-68240000D03*
D14*
X135920000Y-70780000D03*
D15*
X135920000Y-73320000D03*
D14*
X135920000Y-75860000D03*
X135920000Y-78400000D03*
X135920000Y-80940000D03*
X135920000Y-83480000D03*
D15*
X135920000Y-86020000D03*
D14*
X135920000Y-88560000D03*
X135920000Y-91100000D03*
X135920000Y-93640000D03*
X135920000Y-96180000D03*
D15*
X135920000Y-98720000D03*
D14*
X135920000Y-101260000D03*
X135920000Y-103800000D03*
X135920000Y-106340000D03*
X135920000Y-108880000D03*
D15*
X135920000Y-111420000D03*
D14*
X135920000Y-113960000D03*
X135920000Y-116500000D03*
X153700000Y-116500000D03*
X153700000Y-113960000D03*
D16*
X153700000Y-111420000D03*
D14*
X153700000Y-108880000D03*
X153700000Y-106340000D03*
X153700000Y-103800000D03*
X153700000Y-101260000D03*
D16*
X153700000Y-98720000D03*
D14*
X153700000Y-96180000D03*
X153700000Y-93640000D03*
X153700000Y-91100000D03*
X153700000Y-88560000D03*
D16*
X153700000Y-86020000D03*
D14*
X153700000Y-83480000D03*
X153700000Y-80940000D03*
X153700000Y-78400000D03*
X153700000Y-75860000D03*
D16*
X153700000Y-73320000D03*
D14*
X153700000Y-70780000D03*
X153700000Y-68240000D03*
%TD*%
D10*
%TO.C,REF\u002A\u002A*%
X108500000Y-127000000D03*
%TD*%
%TO.C,REF\u002A\u002A*%
X103500000Y-127000000D03*
%TD*%
%TO.C,REF\u002A\u002A*%
X168000000Y-74000000D03*
%TD*%
%TO.C,REF\u002A\u002A*%
X119500000Y-127000000D03*
%TD*%
%TO.C,REF\u002A\u002A*%
X113000000Y-127000000D03*
%TD*%
%TO.C,REF\u002A\u002A*%
X111500000Y-127000000D03*
%TD*%
%TO.C,REF\u002A\u002A*%
X162000000Y-74000000D03*
%TD*%
M02*
