%TF.GenerationSoftware,KiCad,Pcbnew,9.0.1*%
%TF.CreationDate,2025-05-02T16:57:55-04:00*%
%TF.ProjectId,de_fused_pico,64655f66-7573-4656-945f-7069636f2e6b,rev?*%
%TF.SameCoordinates,Original*%
%TF.FileFunction,Legend,Top*%
%TF.FilePolarity,Positive*%
%FSLAX46Y46*%
G04 Gerber Fmt 4.6, Leading zero omitted, Abs format (unit mm)*
G04 Created by KiCad (PCBNEW 9.0.1) date 2025-05-02 16:57:55*
%MOMM*%
%LPD*%
G01*
G04 APERTURE LIST*
%ADD10C,0.150000*%
%ADD11C,0.120000*%
G04 APERTURE END LIST*
D10*
X156846660Y-117304104D02*
X157322850Y-117304104D01*
X156751422Y-117589819D02*
X157084755Y-116589819D01*
X157084755Y-116589819D02*
X157418088Y-117589819D01*
X158275231Y-117589819D02*
X157703803Y-117589819D01*
X157989517Y-117589819D02*
X157989517Y-116589819D01*
X157989517Y-116589819D02*
X157894279Y-116732676D01*
X157894279Y-116732676D02*
X157799041Y-116827914D01*
X157799041Y-116827914D02*
X157703803Y-116875533D01*
D11*
%TO.C,REF\u002A\u002A*%
X110700000Y-127000000D02*
G75*
G02*
X109300000Y-127000000I-700000J0D01*
G01*
X109300000Y-127000000D02*
G75*
G02*
X110700000Y-127000000I700000J0D01*
G01*
X102200000Y-127000000D02*
G75*
G02*
X100800000Y-127000000I-700000J0D01*
G01*
X100800000Y-127000000D02*
G75*
G02*
X102200000Y-127000000I700000J0D01*
G01*
X126700000Y-127000000D02*
G75*
G02*
X125300000Y-127000000I-700000J0D01*
G01*
X125300000Y-127000000D02*
G75*
G02*
X126700000Y-127000000I700000J0D01*
G01*
X115200000Y-127000000D02*
G75*
G02*
X113800000Y-127000000I-700000J0D01*
G01*
X113800000Y-127000000D02*
G75*
G02*
X115200000Y-127000000I700000J0D01*
G01*
X123200000Y-127000000D02*
G75*
G02*
X121800000Y-127000000I-700000J0D01*
G01*
X121800000Y-127000000D02*
G75*
G02*
X123200000Y-127000000I700000J0D01*
G01*
X106200000Y-127000000D02*
G75*
G02*
X104800000Y-127000000I-700000J0D01*
G01*
X104800000Y-127000000D02*
G75*
G02*
X106200000Y-127000000I700000J0D01*
G01*
X161050000Y-63550000D02*
X162950000Y-63550000D01*
X161050000Y-65450000D02*
X161050000Y-63550000D01*
X162950000Y-63550000D02*
X162950000Y-65450000D01*
X162950000Y-65450000D02*
X161050000Y-65450000D01*
%TO.C,A1*%
X134200000Y-69300000D02*
X133720000Y-69300000D01*
X134200000Y-69300000D02*
X134200000Y-69720000D01*
X134200000Y-71840000D02*
X134200000Y-72260000D01*
X134200000Y-74380000D02*
X134200000Y-74800000D01*
X134200000Y-76920000D02*
X134200000Y-77340000D01*
X134200000Y-79460000D02*
X134200000Y-79880000D01*
X134200000Y-82000000D02*
X134200000Y-82420000D01*
X134200000Y-84540000D02*
X134200000Y-84960000D01*
X134200000Y-87080000D02*
X134200000Y-87500000D01*
X134200000Y-89620000D02*
X134200000Y-90040000D01*
X134200000Y-92160000D02*
X134200000Y-92580000D01*
X134200000Y-94700000D02*
X134200000Y-95120000D01*
X134200000Y-97240000D02*
X134200000Y-97660000D01*
X134200000Y-99780000D02*
X134200000Y-100200000D01*
X134200000Y-102320000D02*
X134200000Y-102740000D01*
X134200000Y-104860000D02*
X134200000Y-105280000D01*
X134200000Y-107400000D02*
X134200000Y-107820000D01*
X134200000Y-109940000D02*
X134200000Y-110360000D01*
X134200000Y-112480000D02*
X134200000Y-112900000D01*
X134200000Y-115020000D02*
X134200000Y-115440000D01*
X134230324Y-67180000D02*
X133720000Y-67180000D01*
X134540000Y-67180063D02*
X134540000Y-66823000D01*
X134540000Y-69300000D02*
X134540000Y-69720000D01*
X134540000Y-71840000D02*
X134540000Y-72260000D01*
X134540000Y-74380000D02*
X134540000Y-74800000D01*
X134540000Y-76920000D02*
X134540000Y-77340000D01*
X134540000Y-79460000D02*
X134540000Y-79880000D01*
X134540000Y-82000000D02*
X134540000Y-82420000D01*
X134540000Y-84540000D02*
X134540000Y-84960000D01*
X134540000Y-87080000D02*
X134540000Y-87500000D01*
X134540000Y-89620000D02*
X134540000Y-90040000D01*
X134540000Y-92160000D02*
X134540000Y-92580000D01*
X134540000Y-94700000D02*
X134540000Y-95120000D01*
X134540000Y-97240000D02*
X134540000Y-97660000D01*
X134540000Y-99780000D02*
X134540000Y-100200000D01*
X134540000Y-102320000D02*
X134540000Y-102740000D01*
X134540000Y-104860000D02*
X134540000Y-105280000D01*
X134540000Y-107400000D02*
X134540000Y-107820000D01*
X134540000Y-109940000D02*
X134540000Y-110360000D01*
X134540000Y-112480000D02*
X134540000Y-112900000D01*
X134540000Y-115020000D02*
X134540000Y-115440000D01*
X134540000Y-117559937D02*
X134540000Y-117917000D01*
X134810000Y-66760000D02*
X137300000Y-66760000D01*
X134810000Y-117980000D02*
X138647939Y-117980000D01*
X137300000Y-66760000D02*
X137300000Y-67673520D01*
X137300000Y-66760000D02*
X138647940Y-66760000D01*
X137300000Y-70066480D02*
X137300000Y-114673520D01*
X137300000Y-117066480D02*
X137300000Y-117980000D01*
X139572061Y-66760000D02*
X140575000Y-66760000D01*
X140575000Y-66760000D02*
X149045000Y-66760000D01*
X140910000Y-66760000D02*
X140910000Y-67676000D01*
X140910000Y-70064000D02*
X140910000Y-71280000D01*
X140910000Y-71280000D02*
X141206090Y-71280000D01*
X141210000Y-117980000D02*
X139572061Y-117980000D01*
X143563910Y-71280000D02*
X146056090Y-71280000D01*
X148410000Y-117980000D02*
X141210000Y-117980000D01*
X148413910Y-71280000D02*
X148710000Y-71280000D01*
X148710000Y-66760000D02*
X148710000Y-67676000D01*
X148710000Y-70064000D02*
X148710000Y-71280000D01*
X149045000Y-66760000D02*
X150047939Y-66760000D01*
X150047939Y-117980000D02*
X148410000Y-117980000D01*
X150972061Y-66760000D02*
X152320000Y-66760000D01*
X150972061Y-117980000D02*
X154810000Y-117980000D01*
X152320000Y-66760000D02*
X152320000Y-67673520D01*
X152320000Y-70066480D02*
X152320000Y-114673520D01*
X152320000Y-117066480D02*
X152320000Y-117980000D01*
X154810000Y-66760000D02*
X152320000Y-66760000D01*
X155080000Y-67180063D02*
X155080000Y-66823000D01*
X155080000Y-69300000D02*
X155080000Y-69720000D01*
X155080000Y-71840000D02*
X155080000Y-72260000D01*
X155080000Y-74380000D02*
X155080000Y-74800000D01*
X155080000Y-76920000D02*
X155080000Y-77340000D01*
X155080000Y-79460000D02*
X155080000Y-79880000D01*
X155080000Y-82000000D02*
X155080000Y-82420000D01*
X155080000Y-84540000D02*
X155080000Y-84960000D01*
X155080000Y-87080000D02*
X155080000Y-87500000D01*
X155080000Y-89620000D02*
X155080000Y-90040000D01*
X155080000Y-92160000D02*
X155080000Y-92580000D01*
X155080000Y-94700000D02*
X155080000Y-95120000D01*
X155080000Y-97240000D02*
X155080000Y-97660000D01*
X155080000Y-99780000D02*
X155080000Y-100200000D01*
X155080000Y-102320000D02*
X155080000Y-102740000D01*
X155080000Y-104860000D02*
X155080000Y-105280000D01*
X155080000Y-107400000D02*
X155080000Y-107820000D01*
X155080000Y-109940000D02*
X155080000Y-110360000D01*
X155080000Y-112480000D02*
X155080000Y-112900000D01*
X155080000Y-115020000D02*
X155080000Y-115440000D01*
X155080000Y-117559937D02*
X155080000Y-117917000D01*
X155420000Y-69300000D02*
X155420000Y-69720000D01*
X155420000Y-71840000D02*
X155420000Y-72260000D01*
X155420000Y-74380000D02*
X155420000Y-74800000D01*
X155420000Y-76920000D02*
X155420000Y-77340000D01*
X155420000Y-79460000D02*
X155420000Y-79880000D01*
X155420000Y-82000000D02*
X155420000Y-82420000D01*
X155420000Y-84540000D02*
X155420000Y-84960000D01*
X155420000Y-87080000D02*
X155420000Y-87500000D01*
X155420000Y-89620000D02*
X155420000Y-90040000D01*
X155420000Y-92160000D02*
X155420000Y-92580000D01*
X155420000Y-94700000D02*
X155420000Y-95120000D01*
X155420000Y-97240000D02*
X155420000Y-97660000D01*
X155420000Y-99780000D02*
X155420000Y-100200000D01*
X155420000Y-102320000D02*
X155420000Y-102740000D01*
X155420000Y-104860000D02*
X155420000Y-105280000D01*
X155420000Y-107400000D02*
X155420000Y-107820000D01*
X155420000Y-109940000D02*
X155420000Y-110360000D01*
X155420000Y-112480000D02*
X155420000Y-112900000D01*
X155420000Y-115020000D02*
X155420000Y-115440000D01*
X134230324Y-67180000D02*
G75*
G02*
X134810000Y-66760000I579692J-190051D01*
G01*
X134810000Y-117980000D02*
G75*
G02*
X134230324Y-117559937I1J610002D01*
G01*
X154810000Y-66760000D02*
G75*
G02*
X155389676Y-67180063I0J-610000D01*
G01*
X155389676Y-117559937D02*
G75*
G02*
X154810000Y-117980069I-579676J189837D01*
G01*
%TO.C,REF\u002A\u002A*%
X109200000Y-127000000D02*
G75*
G02*
X107800000Y-127000000I-700000J0D01*
G01*
X107800000Y-127000000D02*
G75*
G02*
X109200000Y-127000000I700000J0D01*
G01*
X104200000Y-127000000D02*
G75*
G02*
X102800000Y-127000000I-700000J0D01*
G01*
X102800000Y-127000000D02*
G75*
G02*
X104200000Y-127000000I700000J0D01*
G01*
X168700000Y-74000000D02*
G75*
G02*
X167300000Y-74000000I-700000J0D01*
G01*
X167300000Y-74000000D02*
G75*
G02*
X168700000Y-74000000I700000J0D01*
G01*
X167050000Y-63550000D02*
X168950000Y-63550000D01*
X167050000Y-65450000D02*
X167050000Y-63550000D01*
X168950000Y-63550000D02*
X168950000Y-65450000D01*
X168950000Y-65450000D02*
X167050000Y-65450000D01*
X120200000Y-127000000D02*
G75*
G02*
X118800000Y-127000000I-700000J0D01*
G01*
X118800000Y-127000000D02*
G75*
G02*
X120200000Y-127000000I700000J0D01*
G01*
X113700000Y-127000000D02*
G75*
G02*
X112300000Y-127000000I-700000J0D01*
G01*
X112300000Y-127000000D02*
G75*
G02*
X113700000Y-127000000I700000J0D01*
G01*
X112200000Y-127000000D02*
G75*
G02*
X110800000Y-127000000I-700000J0D01*
G01*
X110800000Y-127000000D02*
G75*
G02*
X112200000Y-127000000I700000J0D01*
G01*
X162700000Y-74000000D02*
G75*
G02*
X161300000Y-74000000I-700000J0D01*
G01*
X161300000Y-74000000D02*
G75*
G02*
X162700000Y-74000000I700000J0D01*
G01*
%TD*%
M02*
